<svg version="1" xmlns="http://www.w3.org/2000/svg" width="268" height="268" viewBox="0 0 201.000000 201.000000"><path d="M132.4 1.1c-1.7.5-5.9 3.3-9.2 6.3-7.4 6.6-10.5 7.6-24.4 7.6-12.8 0-22.6 1.8-33.7 6C45 28.8 23.7 48.5 16 66.5c-8.9 20.9-8.2 54.3 1.7 73.8 7.1 14.1 19.5 28 29.8 33.4 20 10.5 44.8 8.1 62.9-6.1l3.9-3-.7 4.3c-.9 5.5-3.8 11.4-8.7 17.3-4.5 5.4-5.1 9.6-1.8 12.9 1.9 1.9 2.9 2.1 8.5 1.6 27.6-2.6 57.9-25.5 70.6-53.4 10.7-23.7 10.7-53.9 0-77.6-6.8-14.9-19.8-30.3-33.2-39.2-3.6-2.4-7.4-5.3-8.4-6.4-4.2-4.6-3.5-13.4 1.5-18.7 2.4-2.6 2.4-2.6-.8-4.3-2.5-1.3-4.5-1.3-8.9 0zM90.8 63.6c4.7 1.9 8.8 5.8 11.4 10.8 3 5.9 2.2 15.1-1.7 20.8-4.5 6.3-10.4 9-18.6 8.6-5.3-.3-7.5-.9-10.7-3.2-4.8-3.3-9.2-11.2-9.2-16.5 0-15.6 15-26.3 28.8-20.5z"/><path d="M86.7 76.1c-2.7 1.6-3.8 5.3-2.6 8.9 2.6 7.4 13 6.4 14.5-1.5 1.2-6.2-6.1-10.8-11.9-7.4z"/></svg>